<?xml version="1.0" encoding="UTF-8" standalone="no"?>
<!-- Generated by SVGo -->

<svg
   width="150.35829mm"
   height="113.30506mm"
   viewBox="0 0 150.3583 113.30505"
   version="1.1"
   id="svg2156"
   sodipodi:docname="Thupp-R-keyholes.svg"
   inkscape:version="1.1 (c68e22c387, 2021-05-23)"
   xmlns:inkscape="http://www.inkscape.org/namespaces/inkscape"
   xmlns:sodipodi="http://sodipodi.sourceforge.net/DTD/sodipodi-0.dtd"
   xmlns="http://www.w3.org/2000/svg"
   xmlns:svg="http://www.w3.org/2000/svg">
  <defs
     id="defs2160">
    <inkscape:path-effect
       effect="fillet_chamfer"
       id="path-effect6990"
       is_visible="true"
       lpeversion="1"
       satellites_param="C,0,0,1,0,0,0,7 @ C,0,0,1,0,0,0,7 @ C,0,0,1,0,0,0,7 @ C,0,0,1,0,0,0,7"
       unit="px"
       method="auto"
       mode="C"
       radius="0"
       chamfer_steps="7"
       flexible="false"
       use_knot_distance="true"
       apply_no_radius="true"
       apply_with_radius="true"
       only_selected="false"
       hide_knots="false" />
    <inkscape:path-effect
       effect="fillet_chamfer"
       id="path-effect3360"
       is_visible="true"
       lpeversion="1"
       satellites_param="F,0,0,1,0,2.9430925,0,6 @ F,0,0,1,0,2.6458333,0,6 @ F,0,0,1,0,3.1547331,0,6 @ F,0,0,1,0,2.6458333,0,6 @ F,0,0,1,0,2.6458333,0,6 @ F,0,0,1,0,2.6458333,0,6 @ F,0,0,1,0,2.6458333,0,6"
       unit="px"
       method="auto"
       mode="F"
       radius="10"
       chamfer_steps="6"
       flexible="false"
       use_knot_distance="true"
       apply_no_radius="true"
       apply_with_radius="true"
       only_selected="false"
       hide_knots="false" />
  </defs>
  <sodipodi:namedview
     id="namedview2158"
     pagecolor="#505050"
     bordercolor="#ffffff"
     borderopacity="1"
     inkscape:pageshadow="0"
     inkscape:pageopacity="0"
     inkscape:pagecheckerboard="1"
     inkscape:document-units="mm"
     showgrid="false"
     inkscape:zoom="1.5959088"
     inkscape:cx="263.48623"
     inkscape:cy="178.89493"
     inkscape:window-width="1920"
     inkscape:window-height="1027"
     inkscape:window-x="1072"
     inkscape:window-y="501"
     inkscape:window-maximized="1"
     inkscape:current-layer="svg2156"
     fit-margin-top="0"
     fit-margin-left="0"
     fit-margin-right="0"
     fit-margin-bottom="0"
     lock-margins="true" />
  <g
     id="g10151">
    <polygon
       points="55.9,92.143 49.983,79.455 37.295,85.372 43.211,98.06 "
       style="fill:none;stroke:#000000;stroke-width:0.0506784mm"
       id="polygon2114"
       transform="matrix(0.98665282,0,0,0.98657426,-5.8985229,0.98847039)" />
    <polygon
       points="62.087,93.462 74.775,87.546 68.858,74.857 56.17,80.774 "
       style="fill:none;stroke:#000000;stroke-width:0.0506784mm"
       id="polygon2118"
       transform="matrix(0.98665282,0,0,0.98657426,-5.3230972,1.6997042)" />
    <polygon
       points="126.378,76.39 140.379,76.39 140.379,62.39 126.378,62.39 "
       style="fill:none;stroke:#000000;stroke-width:0.0506784mm"
       id="polygon2120"
       transform="matrix(0.98665282,0,0,0.98657426,-5.8985229,-1.6218407)" />
    <polygon
       points="107.329,74.485 121.329,74.485 121.329,60.485 107.329,60.485 "
       style="fill:none;stroke:#000000;stroke-width:0.0506784mm"
       id="polygon2122"
       transform="matrix(0.98665282,0,0,0.98657426,-5.8985229,-1.6218407)" />
    <polygon
       points="31.129,56.103 31.129,70.103 45.129,70.103 45.129,56.103 "
       style="fill:none;stroke:#000000;stroke-width:0.0506784mm"
       id="polygon2124"
       transform="matrix(0.98665282,0,0,0.98657426,-5.8985229,-0.05565401)" />
    <polygon
       points="102.279,65.912 102.279,51.912 88.279,51.912 88.279,65.912 "
       style="fill:none;stroke:#000000;stroke-width:0.0506784mm"
       id="polygon2126"
       transform="matrix(0.98665282,0,0,0.98657426,-5.8985229,-1.0997784)" />
    <polygon
       points="102.279,65.912 102.279,51.912 88.279,51.912 88.279,65.912 "
       style="fill:none;stroke:#000000;stroke-width:0.0289026mm"
       id="polygon2126-2"
       transform="matrix(1.2989301,1.9507557,-1.0628875,0.70773423,13.969438,-150.60903)" />
    <polygon
       points="50.179,65.912 64.179,65.912 64.179,51.912 50.179,51.912 "
       style="fill:none;stroke:#000000;stroke-width:0.0506784mm"
       id="polygon2128"
       transform="matrix(0.98665282,0,0,0.98657426,-5.8985229,2.5546571)" />
    <polygon
       points="83.229,59.626 83.229,45.626 69.229,45.626 69.229,59.626 "
       style="fill:none;stroke:#000000;stroke-width:0.0506784mm"
       id="polygon2130"
       transform="matrix(0.98665282,0,0,0.98657426,-5.8985229,-1.0997784)" />
    <polygon
       points="131.14,57.34 145.141,57.34 145.141,43.34 131.14,43.34 "
       style="fill:none;stroke:#000000;stroke-width:0.0506784mm"
       id="polygon2132"
       transform="matrix(0.98665282,0,0,0.98657426,-5.8985229,-1.6218407)" />
    <polygon
       points="107.329,55.435 121.329,55.435 121.329,41.435 107.329,41.435 "
       style="fill:none;stroke:#000000;stroke-width:0.0506784mm"
       id="polygon2134"
       transform="matrix(0.98665282,0,0,0.98657426,-5.8985229,-1.6218407)" />
    <polygon
       points="31.129,37.053 31.129,51.053 45.129,51.053 45.129,37.053 "
       style="fill:none;stroke:#000000;stroke-width:0.0506784mm"
       id="polygon2136"
       transform="matrix(0.98665282,0,0,0.98657426,-5.8985229,-0.05565401)" />
    <polygon
       points="102.279,46.862 102.279,32.862 88.279,32.862 88.279,46.862 "
       style="fill:none;stroke:#000000;stroke-width:0.0506784mm"
       id="polygon2138"
       transform="matrix(0.98665282,0,0,0.98657426,-5.8985229,-1.0997784)" />
    <polygon
       points="50.179,46.862 64.179,46.862 64.179,32.862 50.179,32.862 "
       style="fill:none;stroke:#000000;stroke-width:0.0506784mm"
       id="polygon2140"
       transform="matrix(0.98665282,0,0,0.98657426,-5.8985229,2.5546571)" />
    <polygon
       points="83.229,40.576 83.229,26.576 69.229,26.576 69.229,40.576 "
       style="fill:none;stroke:#000000;stroke-width:0.0506784mm"
       id="polygon2142"
       transform="matrix(0.98665282,0,0,0.98657426,-5.8985229,-1.0997784)" />
    <polygon
       points="126.378,38.29 140.379,38.29 140.379,24.29 126.378,24.29 "
       style="fill:none;stroke:#000000;stroke-width:0.0506784mm"
       id="polygon2144"
       transform="matrix(0.98665282,0,0,0.98657426,-5.8985229,-1.6218407)" />
    <polygon
       points="107.329,36.385 121.329,36.385 121.329,22.385 107.329,22.385 "
       style="fill:none;stroke:#000000;stroke-width:0.0506784mm"
       id="polygon2146"
       transform="matrix(0.98665282,0,0,0.98657426,-5.8985229,-1.6218407)" />
    <polygon
       points="31.129,18.003 31.129,32.003 45.129,32.003 45.129,18.003 "
       style="fill:none;stroke:#000000;stroke-width:0.0506784mm"
       id="polygon2148"
       transform="matrix(0.98665282,0,0,0.98657426,-5.8985229,-0.05565401)" />
    <polygon
       points="102.279,27.812 102.279,13.812 88.279,13.812 88.279,27.812 "
       style="fill:none;stroke:#000000;stroke-width:0.0506784mm"
       id="polygon2150"
       transform="matrix(0.98665282,0,0,0.98657426,-5.8985229,-1.0997784)" />
    <polygon
       points="50.179,27.812 64.179,27.812 64.179,13.812 50.179,13.812 "
       style="fill:none;stroke:#000000;stroke-width:0.0506784mm"
       id="polygon2152"
       transform="matrix(0.98665282,0,0,0.98657426,-5.8985229,2.5546571)" />
    <polygon
       points="83.229,21.526 83.229,7.526 69.229,7.526 69.229,21.526 "
       style="fill:none;stroke:#000000;stroke-width:0.0506784mm"
       id="polygon2154"
       transform="matrix(0.98665282,0,0,0.98657426,-5.8985229,-1.0997784)" />
    <path
       style="fill:none;stroke:#000000;stroke-width:0.264583px;stroke-linecap:butt;stroke-linejoin:miter;stroke-opacity:1"
       d="M 20.447585,12.769619 C 48.903471,-0.69916235 67.966139,-2.0216953 89.552362,2.4062242 c 1.431429,0.2936248 3.74363,0.8108594 5.164961,1.1500345 15.779477,3.7654881 29.599547,9.2956053 40.736547,13.4661093 1.63108,0.610795 3.97658,2.078058 5.11341,3.397718 13.45234,15.61583 12.39995,40.312044 -0.3539,57.850928 -0.8593,1.181692 -2.7895,1.98422 -4.24577,1.863816 -38.319252,-3.168198 -44.95958,7.511439 -57.665591,15.422162 -1.240283,0.772197 -3.31154,1.923816 -4.589163,2.632999 -9.709311,5.389439 -27.28557,14.516699 -53.880852,14.982319 -1.460706,0.0256 -3.145258,-1.05642 -3.762124,-2.38109 L 0.38141497,77.101635 C -0.2354511,75.77697 0.33612319,74.196271 1.6205401,73.499765 25.703773,60.440066 18.29606,39.487163 17.816116,16.989256 c -0.03466,-1.624881 1.162316,-3.524255 2.631469,-4.219637 z"
       id="path2275"
       sodipodi:nodetypes="ccccsccc"
       inkscape:path-effect="#path-effect3360"
       inkscape:original-d="M 17.79596,14.046549 C 48.888253,-1.177735 68.796409,-2.2575293 92.139315,2.9611292 110.44053,7.0420606 126.22605,13.656219 138.41074,18.118806 154.70209,34.11003 153.55192,61.893861 138.60296,80.369929 95.638999,76.264324 90.649197,88.761479 76.023803,96.901599 66.658198,102.11426 47.582487,113.31911 17.186815,113.18974 L -0.73551986,74.703117 C 27.308921,61.204648 17.586284,38.358555 17.79596,14.046549 Z" />
    <g
       id="g7074"
       transform="translate(-0.10436273,1.3058197)">
      <polygon
         points="55.9,92.143 49.983,79.455 37.295,85.372 43.211,98.06 "
         style="fill:none;stroke:#000000;stroke-width:0.0506784mm"
         id="polygon2114-2-9"
         transform="matrix(0.98665282,0,0,0.98657426,-25.86823,1.231535)" />
    </g>
  </g>
</svg>
