<?xml version="1.0" encoding="UTF-8" standalone="no"?>
<!-- Generated by SVGo -->

<svg
   width="152.35829mm"
   height="115.30505mm"
   viewBox="0 0 152.3583 115.30504"
   version="1.1"
   id="svg2156"
   sodipodi:docname="Thupp-R-keymarks.svg"
   inkscape:version="1.1 (c68e22c387, 2021-05-23)"
   xmlns:inkscape="http://www.inkscape.org/namespaces/inkscape"
   xmlns:sodipodi="http://sodipodi.sourceforge.net/DTD/sodipodi-0.dtd"
   xmlns="http://www.w3.org/2000/svg"
   xmlns:svg="http://www.w3.org/2000/svg">
  <defs
     id="defs2160">
    <inkscape:path-effect
       effect="fillet_chamfer"
       id="path-effect6990"
       is_visible="true"
       lpeversion="1"
       satellites_param="C,0,0,1,0,0,0,7 @ C,0,0,1,0,0,0,7 @ C,0,0,1,0,0,0,7 @ C,0,0,1,0,0,0,7"
       unit="px"
       method="auto"
       mode="C"
       radius="0"
       chamfer_steps="7"
       flexible="false"
       use_knot_distance="true"
       apply_no_radius="true"
       apply_with_radius="true"
       only_selected="false"
       hide_knots="false" />
    <inkscape:path-effect
       effect="fillet_chamfer"
       id="path-effect3360"
       is_visible="true"
       lpeversion="1"
       satellites_param="F,0,0,1,0,2.9430925,0,6 @ F,0,0,1,0,2.6458333,0,6 @ F,0,0,1,0,3.1547331,0,6 @ F,0,0,1,0,2.6458333,0,6 @ F,0,0,1,0,2.6458333,0,6 @ F,0,0,1,0,2.6458333,0,6 @ F,0,0,1,0,2.6458333,0,6"
       unit="px"
       method="auto"
       mode="F"
       radius="10"
       chamfer_steps="6"
       flexible="false"
       use_knot_distance="true"
       apply_no_radius="true"
       apply_with_radius="true"
       only_selected="false"
       hide_knots="false" />
  </defs>
  <sodipodi:namedview
     id="namedview2158"
     pagecolor="#505050"
     bordercolor="#ffffff"
     borderopacity="1"
     inkscape:pageshadow="0"
     inkscape:pageopacity="0"
     inkscape:pagecheckerboard="1"
     inkscape:document-units="mm"
     showgrid="false"
     inkscape:zoom="1.1284779"
     inkscape:cx="265.40173"
     inkscape:cy="166.153"
     inkscape:window-width="1920"
     inkscape:window-height="1027"
     inkscape:window-x="1072"
     inkscape:window-y="501"
     inkscape:window-maximized="1"
     inkscape:current-layer="svg2156"
     fit-margin-top="1"
     fit-margin-left="1"
     fit-margin-right="1"
     fit-margin-bottom="1"
     lock-margins="true" />
  <polygon
     points="37.295,85.372 43.211,98.06 55.9,92.143 49.983,79.455 "
     style="fill:none;stroke:#000000;stroke-width:0.0506784mm"
     id="polygon2114"
     transform="matrix(0.98665282,0,0,0.98657426,-4.8985229,1.9884704)" />
  <polygon
     points="68.858,74.857 56.17,80.774 62.087,93.462 74.775,87.546 "
     style="fill:none;stroke:#000000;stroke-width:0.0506784mm"
     id="polygon2118"
     transform="matrix(0.98665282,0,0,0.98657426,-4.3230972,2.6997042)" />
  <polygon
     points="140.379,62.39 126.378,62.39 126.378,76.39 140.379,76.39 "
     style="fill:none;stroke:#000000;stroke-width:0.0506784mm"
     id="polygon2120"
     transform="matrix(0.98665282,0,0,0.98657426,-4.8985229,-0.62184072)" />
  <polygon
     points="121.329,60.485 107.329,60.485 107.329,74.485 121.329,74.485 "
     style="fill:none;stroke:#000000;stroke-width:0.0506784mm"
     id="polygon2122"
     transform="matrix(0.98665282,0,0,0.98657426,-4.8985229,-0.62184072)" />
  <polygon
     points="45.129,70.103 45.129,56.103 31.129,56.103 31.129,70.103 "
     style="fill:none;stroke:#000000;stroke-width:0.0506784mm"
     id="polygon2124"
     transform="matrix(0.98665282,0,0,0.98657426,-4.8985229,0.944346)" />
  <polygon
     points="88.279,51.912 88.279,65.912 102.279,65.912 102.279,51.912 "
     style="fill:none;stroke:#000000;stroke-width:0.0506784mm"
     id="polygon2126"
     transform="matrix(0.98665282,0,0,0.98657426,-4.8985229,-0.09977842)" />
  <polygon
     points="88.279,51.912 88.279,65.912 102.279,65.912 102.279,51.912 "
     style="fill:none;stroke:#000000;stroke-width:0.0289026mm"
     id="polygon2126-2"
     transform="matrix(1.2989301,1.9507557,-1.0628875,0.70773423,14.969438,-149.60903)" />
  <polygon
     points="64.179,51.912 50.179,51.912 50.179,65.912 64.179,65.912 "
     style="fill:none;stroke:#000000;stroke-width:0.0506784mm"
     id="polygon2128"
     transform="matrix(0.98665282,0,0,0.98657426,-4.8985229,3.5546571)" />
  <polygon
     points="69.229,45.626 69.229,59.626 83.229,59.626 83.229,45.626 "
     style="fill:none;stroke:#000000;stroke-width:0.0506784mm"
     id="polygon2130"
     transform="matrix(0.98665282,0,0,0.98657426,-4.8985229,-0.09977842)" />
  <polygon
     points="145.141,43.34 131.14,43.34 131.14,57.34 145.141,57.34 "
     style="fill:none;stroke:#000000;stroke-width:0.0506784mm"
     id="polygon2132"
     transform="matrix(0.98665282,0,0,0.98657426,-4.8985229,-0.62184072)" />
  <polygon
     points="121.329,41.435 107.329,41.435 107.329,55.435 121.329,55.435 "
     style="fill:none;stroke:#000000;stroke-width:0.0506784mm"
     id="polygon2134"
     transform="matrix(0.98665282,0,0,0.98657426,-4.8985229,-0.62184072)" />
  <polygon
     points="45.129,51.053 45.129,37.053 31.129,37.053 31.129,51.053 "
     style="fill:none;stroke:#000000;stroke-width:0.0506784mm"
     id="polygon2136"
     transform="matrix(0.98665282,0,0,0.98657426,-4.8985229,0.944346)" />
  <polygon
     points="88.279,32.862 88.279,46.862 102.279,46.862 102.279,32.862 "
     style="fill:none;stroke:#000000;stroke-width:0.0506784mm"
     id="polygon2138"
     transform="matrix(0.98665282,0,0,0.98657426,-4.8985229,-0.09977842)" />
  <polygon
     points="64.179,32.862 50.179,32.862 50.179,46.862 64.179,46.862 "
     style="fill:none;stroke:#000000;stroke-width:0.0506784mm"
     id="polygon2140"
     transform="matrix(0.98665282,0,0,0.98657426,-4.8985229,3.5546571)" />
  <polygon
     points="69.229,26.576 69.229,40.576 83.229,40.576 83.229,26.576 "
     style="fill:none;stroke:#000000;stroke-width:0.0506784mm"
     id="polygon2142"
     transform="matrix(0.98665282,0,0,0.98657426,-4.8985229,-0.09977842)" />
  <polygon
     points="140.379,24.29 126.378,24.29 126.378,38.29 140.379,38.29 "
     style="fill:none;stroke:#000000;stroke-width:0.0506784mm"
     id="polygon2144"
     transform="matrix(0.98665282,0,0,0.98657426,-4.8985229,-0.62184072)" />
  <polygon
     points="121.329,22.385 107.329,22.385 107.329,36.385 121.329,36.385 "
     style="fill:none;stroke:#000000;stroke-width:0.0506784mm"
     id="polygon2146"
     transform="matrix(0.98665282,0,0,0.98657426,-4.8985229,-0.62184072)" />
  <polygon
     points="45.129,32.003 45.129,18.003 31.129,18.003 31.129,32.003 "
     style="fill:none;stroke:#000000;stroke-width:0.0506784mm"
     id="polygon2148"
     transform="matrix(0.98665282,0,0,0.98657426,-4.8985229,0.944346)" />
  <polygon
     points="31.129,18.003 31.129,32.003 45.129,32.003 45.129,18.003 "
     style="fill:none;stroke:#000000;stroke-width:0.040812mm"
     id="polygon2148-1"
     transform="matrix(1.2726898,0,0,1.179355,-15.725788,-3.8483388)" />
  <polygon
     points="45.129,18.003 31.129,18.003 31.129,32.003 45.129,32.003 "
     style="fill:none;stroke:#000000;stroke-width:0.040812mm"
     id="polygon2148-1-8"
     transform="matrix(1.2726898,0,0,1.179355,3.1230837,-5.2725166)" />
  <polygon
     points="45.129,32.003 45.129,18.003 31.129,18.003 31.129,32.003 "
     style="fill:none;stroke:#000000;stroke-width:0.040812mm"
     id="polygon2148-1-8-9"
     transform="matrix(1.2726898,0,0,1.179355,21.857185,-15.385616)" />
  <polygon
     points="45.129,32.003 45.129,18.003 31.129,18.003 31.129,32.003 "
     style="fill:none;stroke:#000000;stroke-width:0.040812mm"
     id="polygon2148-1-8-9-0"
     transform="matrix(1.2726898,0,0,1.179355,40.550867,-9.097056)" />
  <polygon
     points="45.129,32.003 45.129,18.003 31.129,18.003 31.129,32.003 "
     style="fill:none;stroke:#000000;stroke-width:0.040812mm"
     id="polygon2148-1-8-9-0-6"
     transform="matrix(1.2726898,0,0,1.179355,59.365322,-1.1419263)" />
  <polygon
     points="45.129,32.003 45.129,18.003 31.129,18.003 31.129,32.003 "
     style="fill:none;stroke:#000000;stroke-width:0.040812mm"
     id="polygon2148-1-8-9-0-6-5"
     transform="matrix(1.2726898,0,0,1.179355,78.17771,0.76464147)" />
  <polygon
     points="88.279,13.812 88.279,27.812 102.279,27.812 102.279,13.812 "
     style="fill:none;stroke:#000000;stroke-width:0.0506784mm"
     id="polygon2150"
     transform="matrix(0.98665282,0,0,0.98657426,-4.8985229,-0.09977842)" />
  <polygon
     points="64.179,13.812 50.179,13.812 50.179,27.812 64.179,27.812 "
     style="fill:none;stroke:#000000;stroke-width:0.0506784mm"
     id="polygon2152"
     transform="matrix(0.98665282,0,0,0.98657426,-4.8985229,3.5546571)" />
  <polygon
     points="69.229,7.526 69.229,21.526 83.229,21.526 83.229,7.526 "
     style="fill:none;stroke:#000000;stroke-width:0.0506784mm"
     id="polygon2154"
     transform="matrix(0.98665282,0,0,0.98657426,-4.8985229,-0.09977842)" />
  <path
     style="fill:none;stroke:#000000;stroke-width:0.264583px;stroke-linecap:butt;stroke-linejoin:miter;stroke-opacity:1"
     d="M 21.447585,13.769619 C 49.903471,0.3008377 68.966139,-1.0216953 90.552362,3.4062242 c 1.431429,0.2936248 3.74363,0.8108594 5.164961,1.1500345 15.779477,3.7654881 29.599547,9.2956053 40.736547,13.4661093 1.63108,0.610795 3.97658,2.078058 5.11341,3.397718 13.45234,15.61583 12.39995,40.312044 -0.3539,57.850928 -0.8593,1.181692 -2.7895,1.98422 -4.24577,1.863816 -38.319252,-3.168198 -44.95958,7.511439 -57.665591,15.422162 -1.240283,0.772197 -3.31154,1.923816 -4.589163,2.632999 -9.709311,5.389439 -27.28557,14.516699 -53.880852,14.982319 -1.460706,0.0256 -3.145258,-1.05642 -3.762124,-2.38109 L 1.3814149,78.101635 C 0.76454886,76.77697 1.3361231,75.196271 2.6205401,74.499765 26.703773,61.440066 19.29606,40.487163 18.816116,17.989256 c -0.03466,-1.624881 1.162316,-3.524255 2.631469,-4.219637 z"
     id="path2275"
     sodipodi:nodetypes="ccccsccc"
     inkscape:path-effect="#path-effect3360"
     inkscape:original-d="M 18.79596,15.046549 C 49.888253,-0.17773495 69.796409,-1.2575293 93.139315,3.9611292 111.44053,8.0420606 127.22605,14.656219 139.41074,19.118806 155.70209,35.11003 154.55192,62.893861 139.60296,81.369929 96.638999,77.264324 91.649197,89.761479 77.023803,97.901599 67.658198,103.11426 48.582487,114.31911 18.186815,114.18974 L 0.2644801,75.703117 C 28.308921,62.204648 18.586284,39.358555 18.79596,15.046549 Z" />
  <polygon
     points="31.129,32.003 45.129,32.003 45.129,18.003 31.129,18.003 "
     style="fill:none;stroke:#000000;stroke-width:0.040812mm"
     id="polygon2148-1-8-9-0-6-8"
     transform="matrix(1.2726898,0,0,1.179355,78.183829,38.32986)" />
  <polygon
     points="45.129,32.003 45.129,18.003 31.129,18.003 31.129,32.003 "
     style="fill:none;stroke:#000000;stroke-width:0.040812mm"
     id="polygon2148-1-8-9-0-6-6"
     transform="matrix(1.2726898,0,0,1.179355,-15.802759,33.75789)" />
  <polygon
     points="31.129,32.003 45.129,32.003 45.129,18.003 31.129,18.003 "
     style="fill:none;stroke:#000000;stroke-width:0.040812mm"
     id="polygon2148-1-8-9-0-6-3"
     transform="matrix(1.2726898,0,0,1.179355,-15.91999,14.970123)" />
  <polygon
     points="31.129,18.003 31.129,32.003 45.129,32.003 45.129,18.003 "
     style="fill:none;stroke:#000000;stroke-width:0.0336152mm"
     id="polygon2148-1-8-9-0-6-88"
     transform="matrix(1.8759825,0,0,1.179355,59.611788,19.395562)" />
  <g
     id="g7074"
     transform="translate(0.89563723,2.3058197)">
    <polygon
       points="37.295,85.372 43.211,98.06 55.9,92.143 49.983,79.455 "
       style="fill:none;stroke:#000000;stroke-width:0.0506784mm"
       id="polygon2114-2-9"
       transform="matrix(0.98665282,0,0,0.98657426,-25.86823,1.231535)" />
    <polygon
       points="31.129,32.003 45.129,32.003 45.129,18.003 31.129,18.003 "
       style="fill:none;stroke:#000000;stroke-width:0.0288075mm"
       id="polygon2148-1-8-9-0-6-88-5"
       transform="matrix(1.0920637,2.309194,-1.0661428,0.5042001,5.031809,-11.779757)" />
  </g>
  <polygon
     points="31.129,32.003 45.129,32.003 45.129,18.003 31.129,18.003 "
     style="fill:none;stroke:#000000;stroke-width:0.0336152mm"
     id="polygon2148-1-8-9-0-6-88-6"
     transform="matrix(0.79027052,1.7014061,-1.0696058,0.4968114,37.716718,12.384386)" />
  <polygon
     points="31.129,18.003 31.129,32.003 45.129,32.003 45.129,18.003 "
     style="fill:none;stroke:#000000;stroke-width:0.0336152mm"
     id="polygon2148-1-8-9-0-6-88-6-0"
     transform="matrix(0.79027052,1.7014061,-1.0696058,0.4968114,56.708005,8.164101)" />
</svg>
