  0
SECTION
  2
HEADER
  9
$ACADVER
  1
AC1014
  9
$HANDSEED
  5
FFFF
  9
$MEASUREMENT
 70
     1
  0
ENDSEC
  0
SECTION
  2
TABLES
  0
TABLE
  2
VPORT
  5
8
330
0
100
AcDbSymbolTable
 70
     4
  0
VPORT
  5
2E
330
8
100
AcDbSymbolTableRecord
100
AcDbViewportTableRecord
  2
*ACTIVE
 70
     0
 10
0.0
 20
0.0
 11
1.0
 21
1.0
 12
210.0
 22
148.5
 13
0.0
 23
0.0
 14
10.0
 24
10.0
 15
10.0
 25
10.0
 16
0.0
 26
0.0
 36
1.0
 17
0.0
 27
0.0
 37
0.0
 40
341.0
 41
1.24
 42
50.0
 43
0.0
 44
0.0
 50
0.0
 51
0.0
 71
     0
 72
   100
 73
     1
 74
     3
 75
     0
 76
     0
 77
     0
 78
     0
  0
ENDTAB
  0
TABLE
  2
LTYPE
  5
5
330
0
100
AcDbSymbolTable
 70
     1
  0
LTYPE
  5
14
330
5
100
AcDbSymbolTableRecord
100
AcDbLinetypeTableRecord
  2
BYBLOCK
 70
     0
  3

 72
    65
 73
     0
 40
0.0
  0
LTYPE
  5
15
330
5
100
AcDbSymbolTableRecord
100
AcDbLinetypeTableRecord
  2
BYLAYER
 70
     0
  3

 72
    65
 73
     0
 40
0.0
  0
LTYPE
  5
16
330
5
100
AcDbSymbolTableRecord
100
AcDbLinetypeTableRecord
  2
CONTINUOUS
 70
     0
  3
Solid line
 72
    65
 73
     0
 40
0.0
  0
ENDTAB
  0
TABLE
  2
LAYER
  5
2
100
AcDbSymbolTable
 70
2
  0
LAYER
  5
50
100
AcDbSymbolTableRecord
100
AcDbLayerTableRecord
  2
0
 70
0
  6
CONTINUOUS
  0
LAYER
  5
51
100
AcDbSymbolTableRecord
100
AcDbLayerTableRecord
  2
Plate
 70
0
  6
CONTINUOUS
  0
ENDTAB
  0
TABLE
  2
STYLE
  5
3
330
0
100
AcDbSymbolTable
 70
     1
  0
STYLE
  5
11
330
3
100
AcDbSymbolTableRecord
100
AcDbTextStyleTableRecord
  2
STANDARD
 70
     0
 40
0.0
 41
1.0
 50
0.0
 71
     0
 42
2.5
  3
txt
  4

  0
ENDTAB
  0
TABLE
  2
VIEW
  5
6
330
0
100
AcDbSymbolTable
 70
     0
  0
ENDTAB
  0
TABLE
  2
UCS
  5
7
330
0
100
AcDbSymbolTable
 70
     0
  0
ENDTAB
  0
TABLE
  2
APPID
  5
9
330
0
100
AcDbSymbolTable
 70
     2
  0
APPID
  5
12
330
9
100
AcDbSymbolTableRecord
100
AcDbRegAppTableRecord
  2
ACAD
 70
     0
  0
ENDTAB
  0
TABLE
  2
DIMSTYLE
  5
A
330
0
100
AcDbSymbolTable
 70
     1
  0
DIMSTYLE
105
27
330
A
100
AcDbSymbolTableRecord
100
AcDbDimStyleTableRecord
  2
ISO-25
 70
     0
  3

  4

  5

  6

  7

 40
1.0
 41
2.5
 42
0.625
 43
3.75
 44
1.25
 45
0.0
 46
0.0
 47
0.0
 48
0.0
140
2.5
141
2.5
142
0.0
143
0.03937007874016
144
1.0
145
0.0
146
1.0
147
0.625
 71
     0
 72
     0
 73
     0
 74
     0
 75
     0
 76
     0
 77
     1
 78
     8
170
     0
171
     3
172
     1
173
     0
174
     0
175
     0
176
     0
177
     0
178
     0
270
     2
271
     2
272
     2
273
     2
274
     3
340
11
275
     0
280
     0
281
     0
282
     0
283
     0
284
     8
285
     0
286
     0
287
     3
288
     0
  0
ENDTAB
  0
TABLE
  2
BLOCK_RECORD
  5
1
330
0
100
AcDbSymbolTable
 70
     1
  0
BLOCK_RECORD
  5
1F
330
1
100
AcDbSymbolTableRecord
100
AcDbBlockTableRecord
  2
*MODEL_SPACE
  0
BLOCK_RECORD
  5
1B
330
1
100
AcDbSymbolTableRecord
100
AcDbBlockTableRecord
  2
*PAPER_SPACE
  0
ENDTAB
  0
ENDSEC
  0
SECTION
  2
BLOCKS
  0
BLOCK
  5
20
330
1F
100
AcDbEntity
  8
0
100
AcDbBlockBegin
  2
*MODEL_SPACE
 70
     0
 10
0.0
 20
0.0
 30
0.0
  3
*MODEL_SPACE
  1

  0
ENDBLK
  5
21
330
1F
100
AcDbEntity
  8
0
100
AcDbBlockEnd
  0
BLOCK
  5
1C
330
1B
100
AcDbEntity
 67
     1
  8
0
100
AcDbBlockBegin
  2
*PAPER_SPACE
  1

  0
ENDBLK
  5
1D
330
1B
100
AcDbEntity
 67
     1
  8
0
100
AcDbBlockEnd
  0
ENDSEC
  0
SECTION
  2
ENTITIES
  0
SPLINE
  5
100
100
AcDbEntity
  8
Plate
 62
7
100
AcDbSpline
 70
8
 71
3
 72
8
 73
4
 74
0
 40
0
 40
0
 40
0
 40
0
 40
1
 40
1
 40
1
 40
1
 10
65.701363
 20
113.211078
 30
0.0
 10
52.331398
 20
112.719854
 30
0.0
 10
38.200596
 20
109.042396
 30
0.0
 10
20.407808
 20
100.620688
 30
0.0
  0
SPLINE
  5
101
100
AcDbEntity
  8
Plate
 62
7
100
AcDbSpline
 70
8
 71
3
 72
8
 73
4
 74
0
 40
0
 40
0
 40
0
 40
0
 40
1
 40
1
 40
1
 40
1
 10
20.407808
 20
100.620688
 30
0.0
 10
18.896453
 20
99.905332
 30
0.0
 10
17.685807
 20
97.986874
 30
0.0
 10
17.721490
 20
96.314057
 30
0.0
  0
SPLINE
  5
102
100
AcDbEntity
  8
Plate
 62
7
100
AcDbSpline
 70
8
 71
3
 72
8
 73
4
 74
0
 40
0
 40
0
 40
0
 40
0
 40
1
 40
1
 40
1
 40
1
 10
17.721490
 20
96.314057
 30
0.0
 10
17.961670
 20
85.055372
 30
0.0
 10
19.931492
 20
74.194181
 30
0.0
 10
18.835329
 20
64.531706
 30
0.0
  0
SPLINE
  5
103
100
AcDbEntity
  8
Plate
 62
7
100
AcDbSpline
 70
8
 71
3
 72
8
 73
4
 74
0
 40
0
 40
0
 40
0
 40
0
 40
1
 40
1
 40
1
 40
1
 10
18.835329
 20
64.531706
 30
0.0
 10
17.739167
 20
54.869230
 30
0.0
 10
13.594103
 20
46.406348
 30
0.0
 10
1.574678
 20
39.888532
 30
0.0
  0
SPLINE
  5
104
100
AcDbEntity
  8
Plate
 62
7
100
AcDbSpline
 70
8
 71
3
 72
8
 73
4
 74
0
 40
0
 40
0
 40
0
 40
0
 40
1
 40
1
 40
1
 40
1
 10
1.574678
 20
39.888532
 30
0.0
 10
0.247917
 20
39.169068
 30
0.0
 10
-0.343325
 20
37.534812
 30
0.0
 10
0.295112
 20
36.163826
 30
0.0
  0
SPLINE
  5
105
100
AcDbEntity
  8
Plate
 62
7
100
AcDbSpline
 70
8
 71
3
 72
8
 73
4
 74
0
 40
0
 40
0
 40
0
 40
0
 40
1
 40
1
 40
1
 40
1
 10
15.983284
 20
2.473837
 30
0.0
 10
16.619628
 20
1.107342
 30
0.0
 10
18.324927
 20
0.011840
 30
0.0
 10
19.833545
 20
0.038231
 30
0.0
  0
SPLINE
  5
106
100
AcDbEntity
  8
Plate
 62
7
100
AcDbSpline
 70
8
 71
3
 72
8
 73
4
 74
0
 40
0
 40
0
 40
0
 40
0
 40
1
 40
1
 40
1
 40
1
 10
19.833545
 20
0.038231
 30
0.0
 10
46.449698
 20
0.504220
 30
0.0
 10
64.046353
 20
9.642448
 30
0.0
 10
73.758392
 20
15.033399
 30
0.0
  0
SPLINE
  5
107
100
AcDbEntity
  8
Plate
 62
7
100
AcDbSpline
 70
8
 71
3
 72
8
 73
4
 74
0
 40
0
 40
0
 40
0
 40
0
 40
1
 40
1
 40
1
 40
1
 10
73.758392
 20
15.033399
 30
0.0
 10
75.036069
 20
15.742615
 30
0.0
 10
77.107932
 20
16.892611
 30
0.0
 10
78.352497
 20
17.667477
 30
0.0
  0
SPLINE
  5
108
100
AcDbEntity
  8
Plate
 62
7
100
AcDbSpline
 70
8
 71
3
 72
8
 73
4
 74
0
 40
0
 40
0
 40
0
 40
0
 40
1
 40
1
 40
1
 40
1
 10
78.352497
 20
17.667477
 30
0.0
 10
91.078361
 20
25.590556
 30
0.0
 10
97.658984
 20
36.243613
 30
0.0
 10
135.959949
 20
33.076926
 30
0.0
  0
SPLINE
  5
109
100
AcDbEntity
  8
Plate
 62
7
100
AcDbSpline
 70
8
 71
3
 72
8
 73
4
 74
0
 40
0
 40
0
 40
0
 40
0
 40
1
 40
1
 40
1
 40
1
 10
135.959949
 20
33.076926
 30
0.0
 10
137.457413
 20
32.953118
 30
0.0
 10
139.403132
 20
33.759114
 30
0.0
 10
140.290045
 20
34.978781
 30
0.0
  0
SPLINE
  5
10a
100
AcDbEntity
  8
Plate
 62
7
100
AcDbSpline
 70
8
 71
3
 72
8
 73
4
 74
0
 40
0
 40
0
 40
0
 40
0
 40
1
 40
1
 40
1
 40
1
 10
140.290045
 20
34.978781
 30
0.0
 10
153.067255
 20
52.549779
 30
0.0
 10
154.124918
 20
77.290840
 30
0.0
 10
140.638837
 20
92.945830
 30
0.0
  0
SPLINE
  5
10b
100
AcDbEntity
  8
Plate
 62
7
100
AcDbSpline
 70
8
 71
3
 72
8
 73
4
 74
0
 40
0
 40
0
 40
0
 40
0
 40
1
 40
1
 40
1
 40
1
 10
140.638837
 20
92.945830
 30
0.0
 10
139.482667
 20
94.287941
 30
0.0
 10
137.137579
 20
95.754074
 30
0.0
 10
135.487816
 20
96.371865
 30
0.0
  0
SPLINE
  5
10c
100
AcDbEntity
  8
Plate
 62
7
100
AcDbSpline
 70
8
 71
3
 72
8
 73
4
 74
0
 40
0
 40
0
 40
0
 40
0
 40
1
 40
1
 40
1
 40
1
 10
135.487816
 20
96.371865
 30
0.0
 10
124.352476
 20
100.541749
 30
0.0
 10
110.527864
 20
106.073479
 30
0.0
 10
94.740187
 20
109.840923
 30
0.0
  0
SPLINE
  5
10d
100
AcDbEntity
  8
Plate
 62
7
100
AcDbSpline
 70
8
 71
3
 72
8
 73
4
 74
0
 40
0
 40
0
 40
0
 40
0
 40
1
 40
1
 40
1
 40
1
 10
94.740187
 20
109.840923
 30
0.0
 10
93.317453
 20
110.180434
 30
0.0
 10
91.005023
 20
110.697295
 30
0.0
 10
89.571821
 20
110.991285
 30
0.0
  0
SPLINE
  5
10e
100
AcDbEntity
  8
Plate
 62
7
100
AcDbSpline
 70
8
 71
3
 72
8
 73
4
 74
0
 40
0
 40
0
 40
0
 40
0
 40
1
 40
1
 40
1
 40
1
 10
89.571821
 20
110.991285
 30
0.0
 10
81.471604
 20
112.652858
 30
0.0
 10
73.723346
 20
113.505812
 30
0.0
 10
65.701363
 20
113.211078
 30
0.0
  0
LWPOLYLINE
  5
10f
100
AcDbEntity
  8
Plate
 62
7
100
AcDbPolyline
 90
2
 70
0
 10
0.295112
 20
36.163826
 30
0.0
 10
15.983284
 20
2.473837
 30
0.0
  0
SPLINE
  5
110
100
AcDbEntity
  8
Plate
 62
7
100
AcDbSpline
 70
8
 71
3
 72
8
 73
4
 74
0
 40
0
 40
0
 40
0
 40
0
 40
1
 40
1
 40
1
 40
1
 10
65.707184
 20
113.024168
 30
0.0
 10
73.712217
 20
113.317680
 30
0.0
 10
81.443869
 20
112.465666
 30
0.0
 10
89.533321
 20
110.806302
 30
0.0
  0
SPLINE
  5
111
100
AcDbEntity
  8
Plate
 62
7
100
AcDbSpline
 70
8
 71
3
 72
8
 73
4
 74
0
 40
0
 40
0
 40
0
 40
0
 40
1
 40
1
 40
1
 40
1
 10
89.533321
 20
110.806302
 30
0.0
 10
90.962972
 20
110.513041
 30
0.0
 10
93.275984
 20
109.996706
 30
0.0
 10
94.695906
 20
109.657867
 30
0.0
  0
SPLINE
  5
112
100
AcDbEntity
  8
Plate
 62
7
100
AcDbSpline
 70
8
 71
3
 72
8
 73
4
 74
0
 40
0
 40
0
 40
0
 40
0
 40
1
 40
1
 40
1
 40
1
 10
94.695906
 20
109.657867
 30
0.0
 10
110.467175
 20
105.894338
 30
0.0
 10
124.281772
 20
100.365709
 30
0.0
 10
135.420408
 20
96.194590
 30
0.0
  0
SPLINE
  5
113
100
AcDbEntity
  8
Plate
 62
7
100
AcDbSpline
 70
8
 71
3
 72
8
 73
4
 74
0
 40
0
 40
0
 40
0
 40
0
 40
1
 40
1
 40
1
 40
1
 10
135.420408
 20
96.194590
 30
0.0
 10
137.032816
 20
95.590790
 30
0.0
 10
139.378792
 20
94.119717
 30
0.0
 10
140.496275
 20
92.822508
 30
0.0
  0
SPLINE
  5
114
100
AcDbEntity
  8
Plate
 62
7
100
AcDbSpline
 70
8
 71
3
 72
8
 73
4
 74
0
 40
0
 40
0
 40
0
 40
0
 40
1
 40
1
 40
1
 40
1
 10
140.496275
 20
92.822508
 30
0.0
 10
153.914869
 20
77.245854
 30
0.0
 10
152.868346
 20
52.597297
 30
0.0
 10
140.137844
 20
35.090541
 30
0.0
  0
SPLINE
  5
115
100
AcDbEntity
  8
Plate
 62
7
100
AcDbSpline
 70
8
 71
3
 72
8
 73
4
 74
0
 40
0
 40
0
 40
0
 40
0
 40
1
 40
1
 40
1
 40
1
 10
140.137844
 20
35.090541
 30
0.0
 10
139.306164
 20
33.946824
 30
0.0
 10
137.390468
 20
33.146840
 30
0.0
 10
135.975400
 20
33.263836
 30
0.0
  0
SPLINE
  5
116
100
AcDbEntity
  8
Plate
 62
7
100
AcDbSpline
 70
8
 71
3
 72
8
 73
4
 74
0
 40
0
 40
0
 40
0
 40
0
 40
1
 40
1
 40
1
 40
1
 10
135.975400
 20
33.263836
 30
0.0
 10
97.637889
 20
36.433544
 30
0.0
 10
90.938483
 20
25.725768
 30
0.0
 10
78.252332
 20
17.827409
 30
0.0
  0
SPLINE
  5
117
100
AcDbEntity
  8
Plate
 62
7
100
AcDbSpline
 70
8
 71
3
 72
8
 73
4
 74
0
 40
0
 40
0
 40
0
 40
0
 40
1
 40
1
 40
1
 40
1
 10
78.252332
 20
17.827409
 30
0.0
 10
77.016331
 20
17.057882
 30
0.0
 10
74.945415
 20
15.906332
 30
0.0
 10
73.667857
 20
15.197185
 30
0.0
  0
SPLINE
  5
118
100
AcDbEntity
  8
Plate
 62
7
100
AcDbSpline
 70
8
 71
3
 72
8
 73
4
 74
0
 40
0
 40
0
 40
0
 40
0
 40
1
 40
1
 40
1
 40
1
 10
73.667857
 20
15.197185
 30
0.0
 10
63.961277
 20
9.809267
 30
0.0
 10
46.404119
 20
0.692330
 30
0.0
 10
19.829731
 20
0.227071
 30
0.0
  0
SPLINE
  5
119
100
AcDbEntity
  8
Plate
 62
7
100
AcDbSpline
 70
8
 71
3
 72
8
 73
4
 74
0
 40
0
 40
0
 40
0
 40
0
 40
1
 40
1
 40
1
 40
1
 10
19.829731
 20
0.227071
 30
0.0
 10
18.416941
 20
0.202407
 30
0.0
 10
16.752222
 20
1.269989
 30
0.0
 10
16.154833
 20
2.552842
 30
0.0
  0
LWPOLYLINE
  5
11a
100
AcDbEntity
  8
Plate
 62
7
100
AcDbPolyline
 90
1
 70
1
 10
65.701363
 20
113.211078
 30
0.0
  0
SPLINE
  5
11b
100
AcDbEntity
  8
Plate
 62
7
100
AcDbSpline
 70
8
 71
3
 72
8
 73
4
 74
0
 40
0
 40
0
 40
0
 40
0
 40
1
 40
1
 40
1
 40
1
 10
0.466620
 20
36.242830
 30
0.0
 10
-0.128676
 20
37.521171
 30
0.0
 10
0.423167
 20
39.049272
 30
0.0
 10
1.665249
 20
39.722818
 30
0.0
  0
SPLINE
  5
11c
100
AcDbEntity
  8
Plate
 62
7
100
AcDbSpline
 70
8
 71
3
 72
8
 73
4
 74
0
 40
0
 40
0
 40
0
 40
0
 40
1
 40
1
 40
1
 40
1
 10
1.665249
 20
39.722818
 30
0.0
 10
13.729044
 20
46.264695
 30
0.0
 10
17.923379
 20
54.807141
 30
0.0
 10
19.024182
 20
64.510509
 30
0.0
  0
SPLINE
  5
11d
100
AcDbEntity
  8
Plate
 62
7
100
AcDbSpline
 70
8
 71
3
 72
8
 73
4
 74
0
 40
0
 40
0
 40
0
 40
0
 40
1
 40
1
 40
1
 40
1
 10
19.024182
 20
64.510509
 30
0.0
 10
20.124983
 20
74.213878
 30
0.0
 10
18.150106
 20
85.078700
 30
0.0
 10
17.910342
 20
96.317912
 30
0.0
  0
SPLINE
  5
11e
100
AcDbEntity
  8
Plate
 62
7
100
AcDbSpline
 70
8
 71
3
 72
8
 73
4
 74
0
 40
0
 40
0
 40
0
 40
0
 40
1
 40
1
 40
1
 40
1
 10
17.910342
 20
96.317912
 30
0.0
 10
17.876707
 20
97.894856
 30
0.0
 10
19.061794
 20
99.773787
 30
0.0
 10
20.488745
 20
100.449194
 30
0.0
  0
SPLINE
  5
11f
100
AcDbEntity
  8
Plate
 62
7
100
AcDbSpline
 70
8
 71
3
 72
8
 73
4
 74
0
 40
0
 40
0
 40
0
 40
0
 40
1
 40
1
 40
1
 40
1
 10
20.488745
 20
100.449194
 30
0.0
 10
38.265797
 20
108.863454
 30
0.0
 10
52.365429
 20
112.534982
 30
0.0
 10
65.707145
 20
113.024168
 30
0.0
  0
LWPOLYLINE
  5
120
100
AcDbEntity
  8
Plate
 62
7
100
AcDbPolyline
 90
2
 70
0
 10
16.154833
 20
2.552842
 30
0.0
 10
0.466620
 20
36.242830
 30
0.0
  0
LWPOLYLINE
  5
121
100
AcDbEntity
  8
Plate
 62
7
100
AcDbPolyline
 90
1
 70
1
 10
65.707145
 20
113.024168
 30
0.0
  0
LWPOLYLINE
  5
122
100
AcDbEntity
  8
Plate
 62
7
100
AcDbPolyline
 90
5
 70
1
 10
62.311710
 20
107.073889
 30
0.0
 10
62.311710
 20
93.073005
 30
0.0
 10
76.313706
 20
93.073005
 30
0.0
 10
76.313706
 20
93.167420
 30
0.0
 10
76.313706
 20
107.073886
 30
0.0
  0
LWPOLYLINE
  5
123
100
AcDbEntity
  8
Plate
 62
7
100
AcDbPolyline
 90
4
 70
1
 10
62.500561
 20
106.885052
 30
0.0
 10
76.124821
 20
106.885052
 30
0.0
 10
76.124821
 20
93.261842
 30
0.0
 10
62.500522
 20
93.261842
 30
0.0
  0
LWPOLYLINE
  5
124
100
AcDbEntity
  8
Plate
 62
7
100
AcDbPolyline
 90
5
 70
1
 10
81.108190
 20
100.873112
 30
0.0
 10
81.108190
 20
86.872229
 30
0.0
 10
95.110182
 20
86.872229
 30
0.0
 10
95.110182
 20
86.966647
 30
0.0
 10
95.110182
 20
100.873112
 30
0.0
  0
LWPOLYLINE
  5
125
100
AcDbEntity
  8
Plate
 62
7
100
AcDbPolyline
 90
4
 70
1
 10
81.297035
 20
100.684276
 30
0.0
 10
94.921337
 20
100.684276
 30
0.0
 10
94.921337
 20
87.061065
 30
0.0
 10
81.297035
 20
87.061065
 30
0.0
  0
LWPOLYLINE
  5
126
100
AcDbEntity
  8
Plate
 62
7
100
AcDbPolyline
 90
5
 70
1
 10
43.517079
 20
97.217776
 30
0.0
 10
43.517079
 20
83.216892
 30
0.0
 10
43.611502
 20
83.216892
 30
0.0
 10
57.519075
 20
83.216892
 30
0.0
 10
57.519075
 20
97.217776
 30
0.0
  0
LWPOLYLINE
  5
127
100
AcDbEntity
  8
Plate
 62
7
100
AcDbPolyline
 90
4
 70
1
 10
43.705932
 20
97.028939
 30
0.0
 10
57.330226
 20
97.028939
 30
0.0
 10
57.330226
 20
83.405729
 30
0.0
 10
43.705932
 20
83.405729
 30
0.0
  0
LWPOLYLINE
  5
128
100
AcDbEntity
  8
Plate
 62
7
100
AcDbPolyline
 90
5
 70
1
 10
24.720563
 20
95.693595
 30
0.0
 10
24.720563
 20
95.599176
 30
0.0
 10
24.720563
 20
81.692711
 30
0.0
 10
38.722561
 20
81.692711
 30
0.0
 10
38.722561
 20
95.693595
 30
0.0
  0
LWPOLYLINE
  5
129
100
AcDbEntity
  8
Plate
 62
7
100
AcDbPolyline
 90
4
 70
1
 10
24.909414
 20
95.504758
 30
0.0
 10
38.533709
 20
95.504758
 30
0.0
 10
38.533709
 20
81.881548
 30
0.0
 10
24.909414
 20
81.881548
 30
0.0
  0
LWPOLYLINE
  5
12a
100
AcDbEntity
  8
Plate
 62
7
100
AcDbPolyline
 90
5
 70
1
 10
99.902782
 20
92.936195
 30
0.0
 10
99.902782
 20
78.935312
 30
0.0
 10
99.997204
 20
78.935312
 30
0.0
 10
113.904774
 20
78.935312
 30
0.0
 10
113.904774
 20
92.936195
 30
0.0
  0
LWPOLYLINE
  5
12b
100
AcDbEntity
  8
Plate
 62
7
100
AcDbPolyline
 90
4
 70
1
 10
100.091627
 20
92.747359
 30
0.0
 10
113.715919
 20
92.747359
 30
0.0
 10
113.715919
 20
79.124148
 30
0.0
 10
100.091627
 20
79.124148
 30
0.0
  0
LWPOLYLINE
  5
12c
100
AcDbEntity
  8
Plate
 62
7
100
AcDbPolyline
 90
5
 70
1
 10
118.697364
 20
91.057464
 30
0.0
 10
118.697364
 20
77.056580
 30
0.0
 10
118.791786
 20
77.056580
 30
0.0
 10
132.701280
 20
77.056580
 30
0.0
 10
132.701280
 20
91.057464
 30
0.0
  0
LWPOLYLINE
  5
12d
100
AcDbEntity
  8
Plate
 62
7
100
AcDbPolyline
 90
4
 70
1
 10
118.888143
 20
90.868627
 30
0.0
 10
132.512444
 20
90.868627
 30
0.0
 10
132.512444
 20
77.245417
 30
0.0
 10
118.888143
 20
77.245417
 30
0.0
  0
LWPOLYLINE
  5
12e
100
AcDbEntity
  8
Plate
 62
7
100
AcDbPolyline
 90
5
 70
1
 10
62.311670
 20
88.280795
 30
0.0
 10
62.311670
 20
74.279912
 30
0.0
 10
76.313666
 20
74.279912
 30
0.0
 10
76.313666
 20
74.374327
 30
0.0
 10
76.313666
 20
88.280792
 30
0.0
  0
LWPOLYLINE
  5
12f
100
AcDbEntity
  8
Plate
 62
7
100
AcDbPolyline
 90
4
 70
1
 10
62.500522
 20
88.091959
 30
0.0
 10
76.124821
 20
88.091959
 30
0.0
 10
76.124821
 20
74.468748
 30
0.0
 10
62.500522
 20
74.468748
 30
0.0
  0
LWPOLYLINE
  5
130
100
AcDbEntity
  8
Plate
 62
7
100
AcDbPolyline
 90
5
 70
1
 10
81.108190
 20
82.078092
 30
0.0
 10
81.108190
 20
68.077209
 30
0.0
 10
95.110182
 20
68.077209
 30
0.0
 10
95.110182
 20
68.171624
 30
0.0
 10
95.110182
 20
82.078089
 30
0.0
  0
LWPOLYLINE
  5
131
100
AcDbEntity
  8
Plate
 62
7
100
AcDbPolyline
 90
4
 70
1
 10
81.297035
 20
81.889256
 30
0.0
 10
94.921337
 20
81.889256
 30
0.0
 10
94.921337
 20
68.266045
 30
0.0
 10
81.297035
 20
68.266045
 30
0.0
  0
LWPOLYLINE
  5
132
100
AcDbEntity
  8
Plate
 62
7
100
AcDbPolyline
 90
5
 70
1
 10
43.517079
 20
78.424682
 30
0.0
 10
43.517079
 20
64.423799
 30
0.0
 10
43.611502
 20
64.423799
 30
0.0
 10
57.519075
 20
64.423799
 30
0.0
 10
57.519075
 20
78.424682
 30
0.0
  0
LWPOLYLINE
  5
133
100
AcDbEntity
  8
Plate
 62
7
100
AcDbPolyline
 90
4
 70
1
 10
43.705932
 20
78.235846
 30
0.0
 10
57.330226
 20
78.235846
 30
0.0
 10
57.330226
 20
64.612635
 30
0.0
 10
43.705932
 20
64.612635
 30
0.0
  0
LWPOLYLINE
  5
134
100
AcDbEntity
  8
Plate
 62
7
100
AcDbPolyline
 90
5
 70
1
 10
24.720563
 20
76.900501
 30
0.0
 10
24.720563
 20
76.806086
 30
0.0
 10
24.720563
 20
62.899621
 30
0.0
 10
38.722561
 20
62.899621
 30
0.0
 10
38.722561
 20
76.900501
 30
0.0
  0
LWPOLYLINE
  5
135
100
AcDbEntity
  8
Plate
 62
7
100
AcDbPolyline
 90
4
 70
1
 10
24.909414
 20
76.711665
 30
0.0
 10
38.533709
 20
76.711665
 30
0.0
 10
38.533709
 20
63.088454
 30
0.0
 10
24.909414
 20
63.088454
 30
0.0
  0
LWPOLYLINE
  5
136
100
AcDbEntity
  8
Plate
 62
7
100
AcDbPolyline
 90
5
 70
1
 10
99.902782
 20
74.143102
 30
0.0
 10
99.902782
 20
60.142218
 30
0.0
 10
99.997204
 20
60.142218
 30
0.0
 10
113.904774
 20
60.142218
 30
0.0
 10
113.904774
 20
74.143102
 30
0.0
  0
LWPOLYLINE
  5
137
100
AcDbEntity
  8
Plate
 62
7
100
AcDbPolyline
 90
4
 70
1
 10
100.091627
 20
73.954265
 30
0.0
 10
113.715919
 20
73.954265
 30
0.0
 10
113.715919
 20
60.331055
 30
0.0
 10
100.091627
 20
60.331055
 30
0.0
  0
LWPOLYLINE
  5
138
100
AcDbEntity
  8
Plate
 62
7
100
AcDbPolyline
 90
5
 70
1
 10
123.397454
 20
72.262443
 30
0.0
 10
123.397454
 20
58.261560
 30
0.0
 10
123.491877
 20
58.261560
 30
0.0
 10
137.399447
 20
58.261560
 30
0.0
 10
137.399447
 20
72.262443
 30
0.0
  0
LWPOLYLINE
  5
139
100
AcDbEntity
  8
Plate
 62
7
100
AcDbPolyline
 90
4
 70
1
 10
123.586310
 20
72.073607
 30
0.0
 10
137.210601
 20
72.073607
 30
0.0
 10
137.210601
 20
58.450397
 30
0.0
 10
123.586310
 20
58.450397
 30
0.0
  0
LWPOLYLINE
  5
13a
100
AcDbEntity
  8
Plate
 62
7
100
AcDbPolyline
 90
5
 70
1
 10
62.311670
 20
69.485775
 30
0.0
 10
62.311670
 20
55.484892
 30
0.0
 10
76.313666
 20
55.484892
 30
0.0
 10
76.313666
 20
55.579307
 30
0.0
 10
76.313666
 20
69.485772
 30
0.0
  0
LWPOLYLINE
  5
13b
100
AcDbEntity
  8
Plate
 62
7
100
AcDbPolyline
 90
4
 70
1
 10
62.500522
 20
69.296939
 30
0.0
 10
76.124821
 20
69.296939
 30
0.0
 10
76.124821
 20
55.673728
 30
0.0
 10
62.500522
 20
55.673728
 30
0.0
  0
LWPOLYLINE
  5
13c
100
AcDbEntity
  8
Plate
 62
7
100
AcDbPolyline
 90
5
 70
1
 10
81.108190
 20
63.284999
 30
0.0
 10
81.108190
 20
49.284115
 30
0.0
 10
95.110182
 20
49.284115
 30
0.0
 10
95.110182
 20
49.378531
 30
0.0
 10
95.110182
 20
63.284996
 30
0.0
  0
LWPOLYLINE
  5
13d
100
AcDbEntity
  8
Plate
 62
7
100
AcDbPolyline
 90
4
 70
1
 10
81.297035
 20
63.096162
 30
0.0
 10
94.921337
 20
63.096162
 30
0.0
 10
94.921337
 20
49.472952
 30
0.0
 10
81.297035
 20
49.472952
 30
0.0
  0
LWPOLYLINE
  5
13e
100
AcDbEntity
  8
Plate
 62
7
100
AcDbPolyline
 90
5
 70
1
 10
43.517079
 20
59.629662
 30
0.0
 10
43.517079
 20
45.628778
 30
0.0
 10
43.611502
 20
45.628778
 30
0.0
 10
57.519075
 20
45.628778
 30
0.0
 10
57.519075
 20
59.629662
 30
0.0
  0
LWPOLYLINE
  5
13f
100
AcDbEntity
  8
Plate
 62
7
100
AcDbPolyline
 90
4
 70
1
 10
43.705932
 20
59.440825
 30
0.0
 10
57.330226
 20
59.440825
 30
0.0
 10
57.330226
 20
45.817615
 30
0.0
 10
43.705932
 20
45.817615
 30
0.0
  0
LWPOLYLINE
  5
140
100
AcDbEntity
  8
Plate
 62
7
100
AcDbPolyline
 90
5
 70
1
 10
24.720563
 20
58.105481
 30
0.0
 10
24.720563
 20
58.011066
 30
0.0
 10
24.720563
 20
44.104601
 30
0.0
 10
38.722561
 20
44.104601
 30
0.0
 10
38.722561
 20
58.105481
 30
0.0
  0
LWPOLYLINE
  5
141
100
AcDbEntity
  8
Plate
 62
7
100
AcDbPolyline
 90
4
 70
1
 10
24.909414
 20
57.916645
 30
0.0
 10
38.533709
 20
57.916645
 30
0.0
 10
38.533709
 20
44.293434
 30
0.0
 10
24.909414
 20
44.293434
 30
0.0
  0
LWPOLYLINE
  5
142
100
AcDbEntity
  8
Plate
 62
7
100
AcDbPolyline
 90
5
 70
1
 10
99.902782
 20
55.348082
 30
0.0
 10
99.902782
 20
41.347198
 30
0.0
 10
99.997204
 20
41.347198
 30
0.0
 10
113.904774
 20
41.347198
 30
0.0
 10
113.904774
 20
55.348082
 30
0.0
  0
LWPOLYLINE
  5
143
100
AcDbEntity
  8
Plate
 62
7
100
AcDbPolyline
 90
4
 70
1
 10
100.091627
 20
55.159245
 30
0.0
 10
113.715919
 20
55.159245
 30
0.0
 10
113.715919
 20
41.536035
 30
0.0
 10
100.091627
 20
41.536035
 30
0.0
  0
LWPOLYLINE
  5
144
100
AcDbEntity
  8
Plate
 62
7
100
AcDbPolyline
 90
5
 70
1
 10
73.486678
 20
55.093727
 30
0.0
 10
58.449847
 20
45.081535
 30
0.0
 10
76.739545
 20
17.613520
 30
0.0
 10
76.818576
 20
17.665542
 30
0.0
 10
91.776399
 20
27.625709
 30
0.0
  0
LWPOLYLINE
  5
145
100
AcDbEntity
  8
Plate
 62
7
100
AcDbPolyline
 90
4
 70
1
 10
73.434681
 20
54.833596
 30
0.0
 10
91.514334
 20
27.679666
 30
0.0
 10
76.791621
 20
17.875579
 30
0.0
 10
58.711966
 20
45.029509
 30
0.0
  0
LWPOLYLINE
  5
146
100
AcDbEntity
  8
Plate
 62
7
100
AcDbPolyline
 90
5
 70
1
 10
118.697403
 20
53.469347
 30
0.0
 10
118.697403
 20
39.468464
 30
0.0
 10
118.791826
 20
39.468464
 30
0.0
 10
132.701319
 20
39.468464
 30
0.0
 10
132.701319
 20
53.469350
 30
0.0
  0
LWPOLYLINE
  5
147
100
AcDbEntity
  8
Plate
 62
7
100
AcDbPolyline
 90
4
 70
1
 10
118.888182
 20
53.280511
 30
0.0
 10
132.512484
 20
53.280511
 30
0.0
 10
132.512484
 20
39.657300
 30
0.0
 10
118.888182
 20
39.657300
 30
0.0
  0
LWPOLYLINE
  5
148
100
AcDbEntity
  8
Plate
 62
7
100
AcDbPolyline
 90
5
 70
1
 10
62.662433
 20
37.878768
 30
0.0
 10
49.970834
 20
31.961246
 30
0.0
 10
55.888827
 20
19.272585
 30
0.0
 10
55.975544
 20
19.313054
 30
0.0
 10
68.580425
 20
25.188184
 30
0.0
  0
LWPOLYLINE
  5
149
100
AcDbEntity
  8
Plate
 62
7
100
AcDbPolyline
 90
4
 70
1
 10
62.569935
 20
37.626343
 30
0.0
 10
68.327982
 20
25.280670
 30
0.0
 10
55.981287
 20
19.525012
 30
0.0
 10
50.223239
 20
31.870685
 30
0.0
  0
LWPOLYLINE
  5
14a
100
AcDbEntity
  8
Plate
 62
7
100
AcDbPolyline
 90
5
 70
1
 10
43.463122
 20
34.053867
 30
0.0
 10
30.773450
 20
28.136345
 30
0.0
 10
36.689516
 20
15.447683
 30
0.0
 10
49.381115
 20
21.365204
 30
0.0
 10
49.340643
 20
21.449991
 30
0.0
  0
LWPOLYLINE
  5
14b
100
AcDbEntity
  8
Plate
 62
7
100
AcDbPolyline
 90
4
 70
1
 10
43.372547
 20
33.801442
 30
0.0
 10
49.128667
 20
21.455769
 30
0.0
 10
36.780084
 20
15.700107
 30
0.0
 10
31.023964
 20
28.045781
 30
0.0
  0
LWPOLYLINE
  5
14c
100
AcDbEntity
  8
Plate
 62
7
100
AcDbPolyline
 90
5
 70
1
 10
23.388963
 20
32.504636
 30
0.0
 10
10.699291
 20
26.587114
 30
0.0
 10
16.615356
 20
13.898452
 30
0.0
 10
29.306957
 20
19.815974
 30
0.0
 10
29.266484
 20
19.902684
 30
0.0
  0
LWPOLYLINE
  5
14d
100
AcDbEntity
  8
Plate
 62
7
100
AcDbPolyline
 90
4
 70
1
 10
23.296465
 20
32.254139
 30
0.0
 10
29.054511
 20
19.906539
 30
0.0
 10
16.705928
 20
14.150876
 30
0.0
 10
10.949808
 20
26.496549
 30
0.0
  0
ENDSEC
  0
SECTION
  2
OBJECTS
  0
DICTIONARY
  5
C
330
0
100
AcDbDictionary
  3
ACAD_GROUP
350
D
  3
ACAD_MLINESTYLE
350
17
  0
DICTIONARY
  5
D
330
C
100
AcDbDictionary
  0
DICTIONARY
  5
1A
330
C
100
AcDbDictionary
  0
DICTIONARY
  5
17
330
C
100
AcDbDictionary
  3
STANDARD
350
18
  0
DICTIONARY
  5
19
330
C
100
AcDbDictionary
  0
ENDSEC
  0
EOF
